<svg xmlns="http://www.w3.org/2000/svg" width="226" height="30" fill="none"><path fill="#fff" d="M3.5 9.7 0 13.2l3.5 3.4L7 13.2 3.5 9.7ZM218.8 9.7l-3.5 3.5 3.5 3.5 3.5-3.5-3.5-3.5Z"/><path fill="#636466" d="M28.6 13.3H30V8.2h2V6.9h-3.3v6.4ZM37.7 14.2V6.5A2.8 2.8 0 0 0 36.2 4l.3 1.2V13a2.7 2.7 0 0 1-1 2.1 3.2 3.2 0 0 1 1 2.3V26a2.8 2.8 0 0 1-2.8 2.8h-8.3V30h9.5a2.8 2.8 0 0 0 2.8-2.8v-8.6a3.2 3.2 0 0 0-1-2.2 2.7 2.7 0 0 0 1-2.2Z"/><path fill="#636466" d="M28.6 24.2H30V19h2v-1.3h-3.3v6.4ZM48.8 24.2h1.3v-16h2V6.9h-3.3v17.3Z"/><path fill="#636466" d="m56.4 4 .3 1.2V26a2.8 2.8 0 0 1-2.8 2.8H47l-1.2-.3a2.8 2.8 0 0 0 2.5 1.5H55a2.8 2.8 0 0 0 2.8-2.8V6.5A2.8 2.8 0 0 0 56.4 4ZM69 13.3h1.3V8.2h2V6.9H69v6.4ZM76.5 18.8a2.7 2.7 0 0 0 1.6-2.5V6.5A2.8 2.8 0 0 0 76.5 4l.3 1.2v9.9a2.7 2.7 0 0 1-1.6 2.5l2 11.2h-3.6L74 30h4.5l-1.9-11.2ZM70.7 17.8H69v11h-3.2V30h4.5V19h.7l-.3-1.2ZM88.6 24.2h1.3v-16h2V6.9h-3.3v17.3Z"/><path fill="#636466" d="m96.1 4 .3 1.2V26a2.8 2.8 0 0 1-2.8 2.8H87c-.5 0-.9-.2-1.3-.3a2.8 2.8 0 0 0 2.5 1.5H95a2.8 2.8 0 0 0 2.8-2.8V6.5A2.8 2.8 0 0 0 96.1 4ZM108.8 24.2h1.3v-16h2V6.9h-3.3v17.3Z"/><path fill="#636466" d="m116.3 4 .3 1.2V26a2.8 2.8 0 0 1-2.8 2.8h-8.3V30h9.6a2.8 2.8 0 0 0 2.8-2.8V6.5a2.8 2.8 0 0 0-1.6-2.5ZM129.2 3.7v25H126V30h4.5V3.7h-1.3ZM149.3 3.7v25h-3.6l.4 1.3h4.5V3.7h-1.3ZM141.5 17.2v11.5h-3.3V30h4.6v-8.3l-1.3-4.5ZM161.2 19h3.8v-1.2h-5c-.5 0-.9-.1-1.3-.3a2.8 2.8 0 0 0 2.5 1.6ZM163 20.8l-1.3.3v3h1.2v-3.3ZM169.2 4l.3 1.2v5.3l-3.3.8v1.6l4.6-1V6.4a2.8 2.8 0 0 0-1.6-2.5Z"/><path fill="#636466" d="M169.2 14.9c.2.3.3.7.3 1.2V26a2.8 2.8 0 0 1-2.8 2.8H160l-1.2-.3a2.8 2.8 0 0 0 2.5 1.5h6.8a2.8 2.8 0 0 0 2.8-2.8v-9.9a2.8 2.8 0 0 0-1.6-2.4ZM161.7 7v6.3h1.2V8.2h2V6.9h-3.2ZM182.3 17.8h-.4v11h-3.3V30h4.5v-9.5l-.8-2.7ZM191.5 3.7H190L186 15.5l4.2 13.2h-3.7l.3 1.2v.1h4.6l-4.2-13.2 4.2-13.1ZM202.2 3.7v25h-3.3V30h4.5V3.7h-1.2ZM224.7 15.6l-3.5 3.5 1.3 1.3 3.5-3.5-1.3-1.3ZM9.4 15.6 6 19l1.3 1.2 3.5-3.5-1.3-1.2Z"/><path fill="#fff" d="M34 10.5a2.7 2.7 0 0 1-1 2.2 3.2 3.2 0 0 1 1 2.2v8.6a2.8 2.8 0 0 1-2.8 2.8h-9.5V0h9.6A2.8 2.8 0 0 1 34 2.8v7.7Zm-4.5-6h-3.3V11h3.3V4.5Zm0 10.9h-3.3v6.4h3.3v-6.4ZM51.4 0a2.8 2.8 0 0 1 2.8 2.8v20.7a2.8 2.8 0 0 1-2.8 2.8h-6.7a2.8 2.8 0 0 1-2.8-2.8V2.8A2.8 2.8 0 0 1 44.7 0h6.7Zm-1.7 4.5h-3.3v17.3h3.3V4.5ZM70.2 26.3l-1.9-11h-1.7v11H62V0h9.6a2.8 2.8 0 0 1 2.8 2.8v9.8a2.7 2.7 0 0 1-1.6 2.5l1.9 11.2h-4.5Zm-.3-21.8h-3.3V11h3.3V4.5ZM91.2 0A2.8 2.8 0 0 1 94 2.8v20.7a2.8 2.8 0 0 1-2.8 2.8h-6.8a2.8 2.8 0 0 1-2.7-2.8V2.8A2.8 2.8 0 0 1 84.4 0h6.8Zm-1.7 4.5h-3.3v17.3h3.3V4.5ZM111.4 0a2.8 2.8 0 0 1 2.8 2.8v20.7a2.8 2.8 0 0 1-2.8 2.8h-9.6V0h9.6Zm-1.8 4.5h-3.2v17.3h3.2V4.5ZM122.3 0h4.5v26.3h-4.5V0ZM146.9 0v26.3h-4.5L139 14.8v11.5h-4.5V0h4.5l3.3 10.8V0h4.5ZM164.3 10.9a2.8 2.8 0 0 1 2.8 2.7v10a2.8 2.8 0 0 1-2.8 2.7h-6.8a2.8 2.8 0 0 1-2.8-2.8v-5.4l4.6-1v4.7h3.2v-6.4h-5a2.8 2.8 0 0 1-2.8-2.8V2.8a2.8 2.8 0 0 1 2.8-2.8h6.8a2.8 2.8 0 0 1 2.8 2.8V8l-4.5 1V4.5h-3.3V11h5ZM183.6 13.1l4.2 13.2h-4.5v-.1l-3.4-10.8h-.4v11H175V0h4.5v10.9h.3L183.3 0h4.5l-4.2 13.1ZM195.2 0h4.6v26.3h-4.6V0Z"/></svg>