<svg xmlns="http://www.w3.org/2000/svg" width="370" height="100" fill="none"><path fill="#fff" d="M120 11.3c7.2-2.4 7.8-11.3.7-11.3-2 0-4.3 1.4-6 4.1l-9.5 16.4a13 13 0 0 1-1.4 2c-2.5-3.3-1.8-8.3 1.7-10.5l-1.3-1.8c-7.5 4.7-5.3 18.3 7.1 18.3 10.7 0 15.6-12.6 8.7-17.2Zm-8.8 14.5c-1.8 0-3.5-.4-5.1-1.2.7-.8 1.2-1.7 1.8-2.6l6-10.2h1c8.3 1.8 5 14-3.7 14Zm3.9-16.1 2.8-4.9c2.7-4.4 6-1.8 4.2 1.5-1.4 2.6-3.4 3.3-7 3.4Z"/><path fill="#fff" d="m259.6 18.8-.2.3c-1.8 2.2-4 3.9-6.6 5l1.5-2.7 4-6.7c3.3-5.6-2.1-7.4-5.7-4.2l.7-1.2h-3.6l-5.5 9.5-.3.3a7.7 7.7 0 0 1-5.4 2.6L242 16c2.1-3.7.2-7.2-3.2-7.2-2.7 0-4.9 1-7 4.6l-1.7 3-1.4 2.4-.2.3c-2.6 3-5 5.2-6.7 5.2-.8 0-1.2-.5-.4-1.9l5.2-9c1.5-2.6 0-4.5-2-4.5-1.5 0-3.1.8-5 2.7l5.7-9.8h-3.5l-10 17-.1.3a22 22 0 0 1-4.3 3.8c1.1-3.4 1-8.5 3.1-13l-2.7-1.5c-1.5 2-4.7 6.7-7.9 10.4l-.2.3c-2.6 3-5.1 5.3-6.7 5.3-.8 0-1.2-.6-.4-2l3.6-6.2c1.2-2.1.6-3.3-.5-4.7l-2-2.4a1.4 1.4 0 0 1-.4-1 1.4 1.4 0 0 1 .6-1l-1.9-2c-2 1.8-2.2 3.8-1 5.4l.4.4c-1.6 2.2-3.7 5.2-6 8l-.3.2c-2.5 3-5.8 5.3-8.3 5.3-2.2 0-3.5-1.4-1.9-4.2l.4-.6c2.3 1 6.6.5 9.3-4.1l.5-.9c1.9-3.2 0-5.7-2.9-5.7a7.6 7.6 0 0 0-6.7 4l-3.4 6-.3.2a7.6 7.6 0 0 1-5.3 2.6l3.3-5.8a8.5 8.5 0 0 0 1.4-4 3 3 0 0 0-2-3 4.2 4.2 0 0 0-3.6.6l4.5-7.7h-3.6l-10 17-.2.2c-2.5 3-5 5.3-6.6 5.3-.8 0-1.3-.5-.4-1.9l3.5-6.2c1.3-2.1.7-3.4-.5-4.8l-2-2.3a1.4 1.4 0 0 1 .2-2l-1.8-2c-2 1.8-2.2 3.8-1 5.4l.3.4c-1.5 2.2-3.7 5.2-6 8l-.2.2c-2.6 3-5 5.3-6.6 5.3-.8 0-1.3-.5-.5-1.9l5.8-10h-2a3.6 3.6 0 0 0-2.3-3.3l-1.5-.3c-1.9 0-4.6 1.5-6 4l-5 8.6c-1.6 2.6-.5 5 2.4 5 1.4 0 3.2-.9 4.9-2.3.2 1.4 1.3 2.4 3 2.4 3 0 6.4-3.2 9.4-6.6l5.9-7.5.4.6a1.7 1.7 0 0 1 .2 2l-3.7 6.4c-1.5 2.6-.5 5 2.4 5 2 0 4.3-1.5 6.6-3.6 0 2.4 1.8 3.8 4 3.8a8 8 0 0 0 6.1-3.3h.8c1.7 0 3.3-.6 4.8-1.4-.2 2.6 1.6 4.5 4.8 4.5 4 0 8-3.1 11-6.5l6-7.6.4.6a1.7 1.7 0 0 1 .2 2l-3.8 6.5c-1.5 2.6-.4 5 2.5 5 2.8 0 6.3-3.1 9.2-6.5 2-2.3 3.8-4.8 5.1-6.5-1.4 3.7-.6 10.3-4 10.3a2 2 0 0 1-1.7-1.3l-2.2 1.1a3.8 3.8 0 0 0 3.9 2.9h1.1c2-.4 3.9-1.2 5.5-2.4l-1.2 2h3.6l5.3-9.3c5.5-6.8 8-5.9 6.4-3.3l-4.7 8c-1.5 2.6-.4 5 2.5 5 2 0 4.3-1.6 6.5-3.7 0 4.5 6.3 5.4 10.2.6h.8c1.3 0 2.6-.4 3.8-1l-6.5 11.3h3.6l10.7-18.3c4-5.4 6.4-3.4 5.5-1.9l-5.4 9.3c-.5 1-1.9 1.3-2.5 0l-2 1a3.8 3.8 0 0 0 3.9 2.8h.2c5.2 0 8.5-3.1 11.4-6.5a2.2 2.2 0 0 0-1.3-1.3Zm-81.1-5c2-3.4 5.7-2.8 3.5.8l-.5.9c-1.7 2.9-4 2.8-5.3 2.3l2.3-4Zm-45.7 5.6c-2.2 3.4-4.3 5-5.7 5-.8 0-1.3-.5-.5-2l5-8.5c2-3.3 5.8-2.5 4 .7l-2.8 4.8Zm26.8 4.9a1.3 1.3 0 0 1-1.3-.9l-.1-.5c0-.7.3-1.3.6-1.8l1.3-2.3a5.2 5.2 0 0 0 2.2 3.7 3.3 3.3 0 0 1-2.7 1.7Zm3.7-3.5a3.8 3.8 0 0 1-1.5-3.2c0-2.5 2.5-6.6 4.5-6.6a1.4 1.4 0 0 1 1.3 1v.5c0 .8-.2 1.5-.6 2.1l-3.7 6.2Zm73.2-1.7h-.1a2 2 0 0 0-2 2.1c-.1.4 0 .8.2 1.1v.1c-1.7 2.9-5.8 2.3-3.6-1.3l2.7-4.7 1.7-2.9c2.5-4.2 6-2.5 3.8 1.1l-2.7 4.5ZM5.7 67 0 72.6l5.7 5.7 5.7-5.7L5.7 67ZM358.2 67l-5.7 5.6 5.7 5.7 5.8-5.7-5.8-5.6Z"/><path fill="#636466" d="M46.9 72.8h2v-8.2h3.3v-2H47v10.2ZM61.8 74.3V61.8a4.5 4.5 0 0 0-2.6-4c.3.6.5 1.2.5 2v12.5a4.4 4.4 0 0 1-1.7 3.5 5.1 5.1 0 0 1 1.7 3.6v14c0 1.2-.5 2.3-1.4 3.2-.8.8-2 1.3-3.2 1.3H41.6v2h15.6c1.2 0 2.4-.4 3.2-1.3.9-.8 1.4-2 1.4-3.1v-14a5.1 5.1 0 0 0-1.7-3.7 4.5 4.5 0 0 0 1.7-3.5Z"/><path fill="#636466" d="M46.9 90.5h2v-8.3h3.3v-2H47v10.3ZM80 90.5h2v-26h3.3v-2h-5.4v28Z"/><path fill="#636466" d="M92.3 57.7c.3.7.5 1.3.5 2v33.7c0 1.2-.5 2.4-1.4 3.2-.8.8-2 1.3-3.2 1.3h-11c-.8 0-1.5-.1-2-.4a4.5 4.5 0 0 0 4 2.5h11c1.3 0 2.4-.5 3.3-1.3.8-.9 1.3-2 1.3-3.2V61.8a4.5 4.5 0 0 0-2.5-4ZM113 72.8h2v-8.2h3.4v-2H113v10.2ZM125.3 81.8a4.5 4.5 0 0 0 2.5-4v-16a4.5 4.5 0 0 0-2.5-4c.3.5.4 1.2.5 1.9v16a4.4 4.4 0 0 1-2.6 4l3 18.2h-5.6l.3 2h7.4l-3-18.1ZM115.8 80.2H113v17.7h-5.3v2h7.4V82.3h1l-.3-2ZM145 90.5h2.2v-26h3.2v-2h-5.3v28Z"/><path fill="#636466" d="M157.4 57.7c.3.7.5 1.3.5 2v33.7c0 1.2-.5 2.3-1.4 3.2-.8.8-2 1.3-3.2 1.3h-11c-.8 0-1.5-.1-2-.4a4.5 4.5 0 0 0 4 2.5h11c1.3 0 2.4-.5 3.3-1.3.8-.9 1.3-2 1.4-3.2V61.8a4.5 4.5 0 0 0-2.6-4ZM178.1 90.5h2.1v-26h3.3v-2H178v28Z"/><path fill="#636466" d="M190.5 57.7c.3.7.4 1.3.4 2v33.7c0 1.2-.5 2.3-1.3 3.2-.9.8-2 1.3-3.2 1.3h-13.6v2.1h15.7c1.2 0 2.3-.5 3.2-1.3.8-.9 1.3-2 1.3-3.2V61.8a4.5 4.5 0 0 0-2.5-4ZM211.6 57.3v40.6h-5.4v2h7.4V57.4h-2ZM244.5 57.3v40.6h-6l.7 2h7.4V57.4h-2.1ZM231.7 79.2V98h-5.4v2h7.4V86.5l-2-7.2ZM264 82.3h6v-2.1H262c-.7 0-1.4-.2-2-.5a4.5 4.5 0 0 0 4 2.6ZM266.8 85l-2 .4v5.1h2V85ZM277 57.7c.4.7.5 1.3.5 2v8.7l-5.3 1.2v2.6l7.4-1.7v-8.7a4.5 4.5 0 0 0-2.5-4Z"/><path fill="#636466" d="M277 75.4c.4.6.5 1.3.5 2v16c0 1.2-.5 2.3-1.3 3.2-.9.8-2 1.3-3.2 1.3h-11.1c-.7 0-1.4-.1-2-.5a4.6 4.6 0 0 0 4 2.6h11.2c1.2 0 2.3-.5 3.2-1.4.8-.8 1.3-2 1.3-3.1v-16a4.5 4.5 0 0 0-2.5-4.1ZM264.7 62.5v10.3h2.1v-8.2h3.3v-2h-5.4ZM298.5 80.2h-.7v17.7h-5.3v2h7.4V84.7l-1.4-4.4ZM313.6 57.3H311l-6.3 19.2 7 21.4h-6l.5 1.8v.3h7.5l-6.9-21.4 7-21.3ZM331 57.3v40.6h-5.3v2h7.4V57.4h-2ZM368 76.5l-5.8 5.7 2 2 5.8-5.6-2-2ZM15.4 76.6l-5.7 5.6 2 2 5.8-5.6-2-2Z"/><path fill="#fff" d="M55.7 68.4a4.4 4.4 0 0 1-1.6 3.4 5.1 5.1 0 0 1 1.7 3.7v14c0 1.2-.6 2.3-1.4 3.2-.9.8-2 1.3-3.2 1.3H35.5V51.3h15.7c1.2 0 2.3.5 3.2 1.3.8.8 1.3 2 1.3 3.2v12.6Zm-7.4-9.8h-5.4V69h5.4V58.6Zm0 17.7h-5.4v10.3h5.4V76.3ZM84.2 51.3a4.5 4.5 0 0 1 4.6 4.5v33.7c0 1.2-.5 2.3-1.4 3.2-.8.8-2 1.3-3.2 1.3h-11a4.5 4.5 0 0 1-4.6-4.5V55.8a4.5 4.5 0 0 1 2.8-4.2c.5-.2 1.1-.3 1.7-.3h11.1Zm-2.9 7.3H76v28h5.3v-28ZM114.9 94l-3-17.8H109V94h-7.4V51.3h15.7a4.5 4.5 0 0 1 4.5 4.5v16a4.4 4.4 0 0 1-2.6 4l3 18.2H115Zm-.5-35.4H109v10.3h5.4V58.6ZM149.4 51.3c1.2 0 2.3.5 3.2 1.3.8.8 1.3 2 1.3 3.2v33.7c0 1.2-.5 2.3-1.3 3.2-.9.8-2 1.3-3.2 1.3h-11.1c-1.2 0-2.4-.5-3.3-1.3-.8-.9-1.3-2-1.3-3.2V55.8a4.5 4.5 0 0 1 2.8-4.2l1.8-.3h11Zm-3 7.3h-5.3v28h5.4v-28ZM182.4 51.3a4.5 4.5 0 0 1 4.6 4.5v33.7c0 1.2-.5 2.3-1.4 3.2-.8.8-2 1.3-3.2 1.3h-15.6V51.3h15.6Zm-2.9 7.3h-5.3v28h5.3v-28ZM200.2 51.3h7.4V94h-7.4V51.3ZM240.5 51.3V94h-7.4l-5.4-18.7V94h-7.4V51.3h7.4l5.4 17.5V51.3h7.4ZM269 69c1.2 0 2.4.4 3.2 1.2.9.9 1.4 2 1.4 3.2v16A4.7 4.7 0 0 1 269 94h-11c-1.3 0-2.4-.4-3.3-1.2-.8-.9-1.3-2-1.3-3.2v-8.8l7.4-1.7v7.6h5.3V76.2H258a4.6 4.6 0 0 1-4.2-2.8c-.2-.5-.3-1-.3-1.7v-16c0-1.1.5-2.3 1.3-3.1.9-.9 2-1.3 3.2-1.3h11.2c1.2 0 2.3.5 3.2 1.3.8.8 1.3 2 1.3 3.2v8.6l-7.5 1.7v-7.5h-5.3v10.3h8.2ZM300.7 72.6l6.9 21.4H300v-.2l-5.6-17.6h-.7V94h-7.4V51.3h7.4v17.6h.6l5.7-17.6h7.5l-7 21.3ZM319.7 51.3h7.4V94h-7.4V51.3Z"/></svg>