<svg xmlns="http://www.w3.org/2000/svg" width="370" height="153" viewBox="0 0 370 153" role="img" aria-label="«Бородинский»">
        <g class="logo__barbershop">
            <path fill="#fff" d="M120 11.4c7.2-2.4 7.8-11.4.7-11.4-2 0-4.3 1.4-5.9 4.2l-9.6 16.5-1.4 2c-2.5-3.4-1.8-8.4 1.7-10.6l-1.3-1.8c-7.5 4.7-5.3 18.4 7.1 18.4C122 28.8 127 16 120 11.4ZM111.2 26c-1.8 0-3.5-.4-5.1-1.2.7-.8 1.3-1.7 1.8-2.6l6-10.3h1c8.3 1.8 5 14.1-3.7 14.1Zm3.9-16.2 2.8-5c2.7-4.4 6-1.8 4.2 1.6-1.4 2.5-3.4 3.3-7 3.4Z"/>
            <path fill="#fff" d="m259.6 19-.2.3c-1.8 2.2-4 3.9-6.5 5l1.4-2.7 4-6.7c3.3-5.7-2-7.6-5.7-4.3l.7-1.3h-3.6l-5.5 9.7-.3.3a7.6 7.6 0 0 1-5.4 2.6l3.4-5.8c2.2-3.7.2-7.2-3.2-7.2-2.7 0-4.9 1-7 4.6l-1.7 3-1.4 2.5-.2.2c-2.6 3-5 5.4-6.7 5.4-.8 0-1.2-.6-.4-2l5.2-9c1.5-2.7 0-4.7-2-4.7-1.5 0-3.1.9-5 2.7l5.7-9.9h-3.5l-10 17.3-.1.2a22 22 0 0 1-4.3 3.9c1.1-3.4 1-8.6 3.1-13.1l-2.7-1.5c-1.4 2-4.7 6.7-7.9 10.4l-.2.3c-2.6 3-5.1 5.4-6.7 5.4-.8 0-1.2-.6-.4-2l3.6-6.3c1.2-2.1.6-3.4-.5-4.8l-2-2.4a1.4 1.4 0 0 1 0-2h.1L192 5c-2 1.7-2.2 3.8-1 5.4l.4.4c-1.6 2.2-3.7 5.2-6 8l-.3.3c-2.6 3-5.8 5.3-8.4 5.3-2.1 0-3.4-1.4-1.8-4.2l.3-.6c2.3 1 6.6.5 9.3-4.1l.5-1c2-3.2.1-5.7-2.8-5.7a7.5 7.5 0 0 0-6.7 4.1l-3.4 6-.3.2a7.6 7.6 0 0 1-5.3 2.7l3.3-5.8a8.5 8.5 0 0 0 1.4-4.1 3 3 0 0 0-2.8-3.2h-.5c-.8 0-1.6.3-2.3.8l4.5-7.8h-3.6l-10 17.2-.2.2c-2.5 3-5 5.4-6.6 5.4-.8 0-1.3-.6-.4-2l3.5-6.3c1.3-2.1.7-3.4-.5-4.8l-2-2.4a1.4 1.4 0 0 1 0-2l.2-.1-1.8-2c-2 1.8-2.2 3.8-1 5.5l.4.4c-1.6 2.2-3.7 5.2-6 8l-.3.3c-2.6 3-5 5.3-6.6 5.3-.8 0-1.3-.6-.4-2l5.7-10h-2a3.7 3.7 0 0 0-3.8-3.5c-1.9 0-4.5 1.5-6 4.1l-5 8.6c-1.6 2.7-.5 5 2.4 5 1.4 0 3.2-.8 5-2.2 0 1.3 1.2 2.3 3 2.3 3 0 6.3-3.2 9.3-6.6 1.7-2 3-3.7 5.9-7.6l.4.6a1.7 1.7 0 0 1 .3 2l-3.8 6.5c-1.5 2.6-.4 5 2.4 5 2 0 4.4-1.5 6.6-3.6 0 2.4 1.8 3.8 4 3.8a7.9 7.9 0 0 0 6.1-3.3h.8c1.7 0 3.3-.5 4.7-1.4-.2 2.6 1.7 4.5 4.8 4.5 4 0 8-3.1 11-6.5 1.8-2 3-3.8 6-7.7l.4.6a1.7 1.7 0 0 1 .2 2l-3.7 6.5c-1.5 2.7-.5 5.1 2.4 5.1s6.3-3.1 9.3-6.6c2-2.3 3.8-4.8 5-6.5-1.3 3.7-.6 10.4-4 10.4a2 2 0 0 1-1.6-1.3l-2.2 1.1a3.9 3.9 0 0 0 4 2.9h1c2-.4 3.9-1.2 5.5-2.4l-1.2 2h3.6l5.4-9.3c5.5-7 7.9-6 6.3-3.4l-4.6 8c-1.5 2.6-.4 5 2.4 5 2.1 0 4.4-1.5 6.6-3.6 0 4.6 6.3 5.4 10.2.6h.8c1.3 0 2.6-.4 3.8-1L235.6 34h3.6l10.6-18.5c4-5.5 6.5-3.5 5.6-1.9L250 23a1.4 1.4 0 0 1-2.6 0l-2 1a3.9 3.9 0 0 0 4 2.8h.1c5.2 0 8.6-3.2 11.5-6.6a2.2 2.2 0 0 0-1.4-1.1Zm-81.1-5c2-3.5 5.7-3 3.5.8l-.5.8c-1.7 3-4 2.9-5.3 2.4l2.3-4Zm-45.7 5.6c-2.2 3.4-4.3 5-5.8 5-.7 0-1.2-.5-.4-2l5-8.7c2-3.3 5.8-2.4 4 .8l-2.8 5Zm26.8 4.9a1.3 1.3 0 0 1-1.4-1.4c0-.7.3-1.3.7-1.9L160 19a5.2 5.2 0 0 0 2.2 3.7 3.3 3.3 0 0 1-2.7 1.7Zm3.7-3.5a3.9 3.9 0 0 1-1.5-3.2c0-2.6 2.5-6.7 4.5-6.7a1.4 1.4 0 0 1 1.4 1.4v.2c0 .7-.3 1.4-.7 2l-3.7 6.3Zm73.2-1.8h-.1a2.1 2.1 0 0 0-2.1 2.1c0 .5 0 .9.3 1.2v.1c-1.7 2.9-5.8 2.3-3.6-1.4l4.4-7.6c2.5-4.2 5.9-2.5 3.7 1.2l-2.6 4.4ZM0 "/>
        </g>
        <g class="logo__borodinsky">
            <path fill="#636466" d="m362.2 83 5.7-5.8 2.1 2-5.7 5.8-2.1-2ZM9.7 83l5.7-5.8 2 2-5.6 5.8-2.1-2Z"/>
            <path fill="#636466" d="M46.9 73.5h2v-8.3h3.3V63H47v10.4ZM61.8 75V62.3a4.6 4.6 0 0 0-2.6-4c.3.6.5 1.3.5 2v12.6a4.5 4.5 0 0 1-1.6 3.5 5.2 5.2 0 0 1 1.7 3.7v14.1a4.6 4.6 0 0 1-4.7 4.6H41.6v2h15.6a4.6 4.6 0 0 0 4.6-4.5v-14a5.2 5.2 0 0 0-1.7-3.8 4.4 4.4 0 0 0 1.7-3.5Z"/>
            <path fill="#636466" d="M46.9 91.3h2V83h3.3v-2.1H47v10.4Zm33 0H82V65.2h3.3V63h-5.4v28.2Z"/>
            <path fill="#636466" d="M92.3 58.3c.3.6.5 1.3.5 2v34a4.6 4.6 0 0 1-4.6 4.5h-11c-.8 0-1.5-.2-2-.5a4.6 4.6 0 0 0 4 2.6h11a4.6 4.6 0 0 0 4.7-4.6v-34a4.5 4.5 0 0 0-2.6-4ZM113 73.5h2v-8.3h3.4V63H113v10.4Zm12.3 9a4.5 4.5 0 0 0 2.6-4V62.2a4.5 4.5 0 0 0-2.6-4c.3.5.5 1.2.5 2v16a4.4 4.4 0 0 1-2.6 4.1l3 18.4h-5.6l.3 2h7.4l-3-18.3Zm-9.5-1.7H113v18h-5.3v2h7.4V83h1l-.3-2.2Zm29.3 10.5h2V65.2h3.3V63h-5.3v28.2Z"/>
            <path fill="#636466" d="M157.4 58.3c.3.6.5 1.3.5 2v34a4.6 4.6 0 0 1-4.6 4.5h-11c-.8 0-1.5-.2-2-.5a4.6 4.6 0 0 0 4 2.6h11a4.6 4.6 0 0 0 4.7-4.6v-34a4.5 4.5 0 0 0-2.6-4Zm20.7 33h2.1V65.2h3.3V63H178v28.2Z"/>
            <path fill="#636466" d="M190.5 58.3c.3.6.5 1.3.5 2v34a4.6 4.6 0 0 1-4.6 4.5h-13.6v2h15.7a4.6 4.6 0 0 0 4.5-4.5v-34a4.6 4.6 0 0 0-2.5-4Zm21-.5v41h-5.3v2h7.4v-43h-2Zm33 0v41h-6l.7 2h7.4v-43h-2.1ZM231.7 80v18.8h-5.4v2h7.4V87.3l-2-7.2Zm32.3 3h6.1v-2.1h-8.2c-.7 0-1.4-.2-2-.5a4.5 4.5 0 0 0 4 2.6Zm2.8 2.7-2 .5v5.1h2v-5.6Zm10.3-27.5c.3.7.5 1.4.5 2V69l-5.4 1.2v2.6l7.4-1.7v-8.8a4.6 4.6 0 0 0-2.5-4Z"/>
            <path fill="#636466" d="M277 76c.4.7.6 1.4.6 2v16.3a4.6 4.6 0 0 1-4.6 4.5h-11.1c-.7 0-1.4-.2-2-.5a4.6 4.6 0 0 0 4 2.6h11.2a4.6 4.6 0 0 0 4.5-4.6V80.1a4.5 4.5 0 0 0-2.5-4Zm-12.3-13v10.5h2.1v-8.3h3.3V63h-5.4ZM298.5 81h-.7v17.9h-5.4v2h7.4V85.4l-1.3-4.4Zm15.1-23.1H311l-6.3 19.4 7 21.6h-6l.5 1.8v.3h7.5l-6.9-21.6 7-21.5Zm17.4 0v41h-5.3v2h7.4v-43h-2Z"/>
            <path fill="#fff" d="M55.7 69a4.4 4.4 0 0 1-1.6 3.5 5.2 5.2 0 0 1 1.6 3.7v14a4.6 4.6 0 0 1-4.5 4.6H35.5v-43h15.7a4.6 4.6 0 0 1 4.5 4.5V69Zm-7.4-9.9h-5.4v10.4h5.4V59.1Zm0 17.8h-5.4v10.5h5.4V76.9Zm36-25.2a4.6 4.6 0 0 1 4.5 4.6v34a4.6 4.6 0 0 1-4.6 4.5h-11a4.6 4.6 0 0 1-4.7-4.5v-34a4.6 4.6 0 0 1 4.6-4.6h11.1Zm-3 7.4H76v28.3h5.3V59ZM115 94.8l-3-17.9H109v18h-7.4V51.6h15.7a4.5 4.5 0 0 1 4.5 4.6v16.1a4.4 4.4 0 0 1-2.6 4l3 18.4H115Zm-.5-35.7H109v10.4h5.4V59.1Zm35-7.4a4.6 4.6 0 0 1 4.5 4.6v34a4.6 4.6 0 0 1-4.5 4.5h-11.1a4.6 4.6 0 0 1-4.6-4.5v-34a4.6 4.6 0 0 1 4.5-4.6h11.2Zm-3 7.4h-5.3v28.3h5.4V59Zm36-7.4a4.6 4.6 0 0 1 4.6 4.6v34a4.6 4.6 0 0 1-4.6 4.5h-15.6v-43h15.6Zm-2.9 7.4h-5.3v28.3h5.3V59Zm20.7-7.4h7.4v43.1h-7.4v-43Zm40.3 0v43.1h-7.4L227.7 76v18.8h-7.4v-43h7.4l5.4 17.6V51.7h7.4ZM269 69.5a4.6 4.6 0 0 1 4.6 4.6v16.2a4.6 4.6 0 0 1-4.6 4.5h-11a4.6 4.6 0 0 1-4.6-4.5v-8.9l7.4-1.7v7.7h5.4V76.9h-8.3a4.6 4.6 0 0 1-4.5-4.5V56.3a4.6 4.6 0 0 1 4.5-4.6H269a4.6 4.6 0 0 1 4.6 4.6V65l-7.4 1.7v-7.6h-5.4v10.4h8.2Zm31.7 3.7 6.9 21.6H300v-.2l-5.6-17.7h-.7v18h-7.4V51.6h7.4v17.8h.6l5.7-17.8h7.5l-7 21.5Zm19-21.5h7.4v43.1h-7.4v-43Z"/>
            <path fill="#fff" d="m259.64.4ZM0 73.2l5.7-5.7 5.7 5.8L5.7 79 0 73.3Zm352.5 0 5.8-5.7 5.7 5.8-5.7 5.7-5.8-5.7Z"/>
        </g>
        <g class="logo__moustache">
            <path fill="#fff" d="M168.2 123.8h1.4c5.4.3 9.7 1.8 12.4 4.8 2.7-3 7-4.5 12.5-4.8h1.3c12.1.9 17.7 9.5 27.3 13.2 1.6.7 3.2 1 4.8 1 2.5-.2 4.1-2.7 3.8-5.5-.3-3-3.3-5.7-6.6-4.2l-1.2.8c-.2.2-.5.8-1.1.6-.6-.5 0-1.2.3-1.6a6 6 0 0 1 6-3c5.7.4 10.8 5.3 9.9 12.8-2 11.1-12.1 14.1-24.2 15.1h-4a48.4 48.4 0 0 1-28.8-11 49.1 49.1 0 0 1-29 11h-3.8c-12.2-1-22.4-4-24.2-15.5-.7-8.1 4.1-12.1 9.8-12.5a6.1 6.1 0 0 1 6.1 3c.3.4.8 1.1.4 1.7-.7 0-1-.4-1.2-.6a4 4 0 0 0-2.8-1.3c-4-.1-6.1 4.2-4.6 7.6a4.3 4.3 0 0 0 3.4 2.6c1.6 0 3.3-.4 4.8-1a24 24 0 0 0 3.9-2c7.3-4.2 13-10.2 23.4-11.2Z"/>
        </g>
</svg>
