<svg xmlns="http://www.w3.org/2000/svg" width="116" height="30" fill="none"><path fill="#fff" d="M44.2.9h1.4C51 1 55.3 2.6 58 5.6c2.7-3 7-4.5 12.5-4.7h1.3C84 1.7 89.5 10.3 99.1 14c1.6.7 3.2 1 4.8 1 2.5-.2 4.1-2.7 3.8-5.5-.4-3-3.3-5.7-6.6-4.2L100 6c-.2.2-.5.8-1.1.6-.6-.5 0-1.2.3-1.6a6 6 0 0 1 6-3c5.7.4 10.8 5.3 9.9 12.8C113 26 102.9 29 90.8 30h-4A48.4 48.4 0 0 1 58 19a49.1 49.1 0 0 1-29 11h-3.8C13 29 2.8 26 1 14.5.3 6.4 5 2.4 10.8 2a6.1 6.1 0 0 1 6.1 3c.3.4.8 1.1.4 1.7-.7 0-1-.4-1.2-.6a4 4 0 0 0-2.8-1.3c-4-.1-6.1 4.2-4.6 7.6a4.3 4.3 0 0 0 3.4 2.6c1.6 0 3.3-.4 4.8-1a24 24 0 0 0 3.9-2C28 7.9 33.8 1.9 44.2 1Z"/></svg>