<svg xmlns="http://www.w3.org/2000/svg" width="95" height="88" fill="none"><path fill="#826550" d="m88 22.3-1.7 5.2a42 42 0 0 1-13.1 53.7 13 13 0 0 1 3.1 2.7A46.6 46.6 0 0 0 88 22.3ZM9.6 69.8H11a42.2 42.2 0 0 1 4-51.5 43.6 43.6 0 0 1 51.6-10c.7-1.1 1.5-2.2 2.5-3.2a48.2 48.2 0 0 0-56 9.4A46.4 46.4 0 0 0 6.3 70a35 35 0 0 1 3.3-.2Z"/><path fill="#826550" d="M54 81.4c.4-6-1-13.9.6-19 4.6 0 9.6.4 13.3-.6 8.2-14.7 12-33.7 18.5-50.2V8.9c-.6-3-3.7-3.6-6.6-4.5h-.6C68.5 7.8 67 20.4 64.6 31.8c-16-4.1-32.6 0-33.2 15-4.6 0-8.1 1.2-10 4-.6 6.6 1.6 10.6 6.7 11.8A22 22 0 0 1 20.8 75c-6.5.6-15.8-1.6-19.3 2v2.6c3.2 3.8 13 1.1 19.3 2 6.6-4 8.5-12.6 11.9-19.7 4.7.3 11-.8 14.6.6v19.6c-7.9.5-15.6 1.2-19.2 5.9h45C70 82.7 60.7 83.4 54 81.4ZM38 47c.7-11.7 15.5-11.6 25.9-8.5 0 4.7-.5 10 1.3 13-7-.8-17.2-4.3-27.2-4.5Z"/></svg>