<svg xmlns="http://www.w3.org/2000/svg" width="95" height="91" fill="none"><path fill="#826550" d="M47.5 8a9.3 9.3 0 0 1 8.5 5.6 8.8 8.8 0 0 1-2 9.9 9.3 9.3 0 0 1-10 2 9.2 9.2 0 0 1-4-3.4 8.9 8.9 0 0 1 1-11.4c1.8-1.7 4-2.6 6.5-2.6Z"/><path fill="#826550" d="M68.1 26H27c-.8.1-1.5.4-2 1-.6.4-.9 1.1-.9 1.9v4.4c0 .7.3 1.4.9 2 .5.5 1.2.8 2 .8h.8V81H27a2.8 2.8 0 0 0-2.8 2.8v4.4c0 .7.2 1.4.7 2 .6.5 1.3.8 2 .8h41.2c.8 0 1.5-.3 2-.8s.8-1.3.8-2v-4.4c0-.8-.3-1.5-.8-2s-1.2-.8-2-.8h-.8V36h.8c.8 0 1.5-.2 2-.7.5-.5.8-1.3.8-2v-4.4c0-.8-.3-1.5-.8-2s-1.2-.8-2-.8ZM34 36h13.3L34 49.2v-13Zm27 45H47.5l13.7-13.3V81Zm0-28.4L34 79V64.2l27-26.5v14.9Z"/><path fill="#826550" d="M47.5 0c-10 0-19.7 3-27.8 8.8A46.6 46.6 0 0 0 2.2 60.5C5.2 69.8 11 78 19 84v-.1c0-1.5.4-2.9 1.2-4A42.6 42.6 0 0 1 6.5 32.3c3-8.4 8.5-15.6 15.9-20.7a44.1 44.1 0 0 1 66.1 20.7 41.8 41.8 0 0 1-13.7 47.3 7.6 7.6 0 0 1 1.1 4v.2a46.6 46.6 0 0 0 16.7-52 46.7 46.7 0 0 0-17.3-23C67.3 3 57.5 0 47.5 0Z"/></svg>