<svg xmlns="http://www.w3.org/2000/svg" width="57" height="97" fill="none"><path fill="#826550" d="M51.1 15.1c-.4-5.4-.6-10.7-2.5-15.1-.8 0-1.5 7.3-2.3 10.8-1.5 7.1-3.7 8.3-4.4 8.3-.9-3.9-4.4-4.2-7.8-5.9-1.1-.6-2.4-1-3.6-1.2-.7 0-1.4 0-2 .2l-2-.2c-1.3.2-2.5.6-3.6 1.2-3.4 1.7-7 2-7.8 5.9-.8 0-3-1.2-4.5-8.3C10 7.3 9.2 0 8.4 0c-2 4.4-2.1 9.7-2.5 15.1C5 38.5 0 51.1 0 62c0 25.9 11.7 35 28.5 35S57 87.9 57 62c0-10.8-5-23.5-5.9-46.9Zm-16.7 9.7c-2.8 1.2-5.3-.7-5.8-.7h-.2c-.5 0-3 1.9-5.8.7-.8-3.5 2.4-4 5.9-3.9 3.5-.1 6.7.3 6 4Z"/></svg>