<svg xmlns="http://www.w3.org/2000/svg" width="52" height="49" fill="none"><path fill="#826550" d="M51.4 0h-.2c-2.3 7.6-3 16.9-9.5 20.4-1.2-3.3-4.1-4.8-7.5-6.3-2.1-.9-4.6-2.5-6.7-2.6-.5 0-1 0-1.5.3-.4-.2-1-.4-1.5-.3-2 .1-4.5 1.7-6.7 2.6-3.3 1.5-6.3 3-7.5 6.3C3.8 17 3.2 7.6.8 0H.6L0 2.4c0 1.9.5 21.2 2 28.1 1.2 6.3 6 10.8 10.9 13.7 3.3 2 8.6 4.8 13.1 4.8s9.8-2.7 13.1-4.8c4.8-3 9.7-7.4 11-13.7C51.5 23.6 52 4.3 52 2.4L51.4 0Zm-14 27.8c-.2 1.5-1.7 3.3-3.4 3.4-3 .2-4.6-4.3-8-4.3-3.3 0-4.9 4.5-7.9 4.3-1.7 0-3.1-1.9-3.4-3.4a7.3 7.3 0 0 1 1.7-5.6c1.1-1 2.9-1 4.7-1.2 1.8-.1 3.6-.8 5-2a8.9 8.9 0 0 0 4.9 2c1.9.3 3.6.1 4.7 1.2a7.4 7.4 0 0 1 1.7 5.6Z"/></svg>