<svg xmlns="http://www.w3.org/2000/svg" width="63" height="78" fill="none"><path fill="#826550" d="M63 41.7c0-5.1-2.4-7.7-3.6-9.9A54.7 54.7 0 0 1 55 14.3C55.1 9.4 53.4 2 52.2 0c-.9 0-1.5 7.7-2.3 11.6-1.4 7-3.8 8.8-4.5 9-.7-2.9-4.1-7.4-13.8-7.8h-.2c-9.7.4-13 5-13.8 7.7-.7 0-3-2-4.5-9C12.3 7.8 11.7 0 10.8 0c-1.2 2-2.9 9.4-3 14.3-.4 6-1.8 12-4.2 17.5C2.4 34 0 36.6 0 41.8c0 3.7 5.3 7 5.7 11.3l.1 3.3c2 17.4 18 21.6 25.7 21.6 7.6 0 23.7-4.2 25.7-21.6l.1-3.3c.5-4.2 5.7-7.6 5.7-11.4ZM33.6 26.6a22 22 0 0 0-4.2 0c-1.7.3-5.8 1-5.8-1 0-1.1 6.8-2.4 7.9-2.4 1 0 7.9 1.3 7.9 2.3 0 2-4 1.4-5.8 1Z"/></svg>