<svg xmlns="http://www.w3.org/2000/svg" width="58" height="57" fill="none"><path fill="#fff" d="M29.4 8.8V.4a.4.4 0 0 0-.7-.3l-.1.3v8.4h.8ZM18.7 11.6l.7-.4L15.3 4a.4.4 0 0 0-.8.4l4.2 7.2ZM4.3 14.2a.4.4 0 0 0 .1.5l7.3 4.2.4-.7L4.9 14a.4.4 0 0 0-.6.2ZM43.6 3.5a.4.4 0 0 0-.6.1l-4.4 7.6.7.4L43.7 4a.4.4 0 0 0-.1-.5ZM54 14.6a.4.4 0 0 0 0-.7.4.4 0 0 0-.5 0L46 18.3l.4.7 7.7-4.4ZM9.2 28.5v-.4H.4a.4.4 0 0 0-.3.7l.3.1h8.8v-.4ZM57.6 28h-8.8v.9h8.8a.4.4 0 0 0 .4-.4.4.4 0 0 0-.4-.4ZM53.5 42.3 46.3 38l-.4.7 7.2 4.2a.4.4 0 0 0 .5 0 .4.4 0 0 0 0-.7ZM4 42.4a.4.4 0 1 0 .5.7l7.6-4.4-.4-.7L4 42.4ZM39.3 45.4l-.8.4 4.2 7.2a.4.4 0 0 0 .8 0v-.4l-4.2-7.2ZM14.3 53a.4.4 0 0 0 .4.6l.3-.2 4.4-7.6-.7-.4-4.4 7.6ZM28.6 48.2v8.4a.4.4 0 0 0 .7.3l.1-.3v-8.4h-.8ZM42.9 21.2a.6.6 0 1 0-.6-1l-11.7 6.7a2.3 2.3 0 0 0-3.2 0L19 22a.6.6 0 0 0-.9.7c0 .2.2.3.3.4l8.4 4.8a2.3 2.3 0 0 0 2.9 2.8 2.3 2.3 0 0 0 1.5-2.8L43 21.2ZM29 29.6a1.1 1.1 0 0 1-1-1.3 1 1 0 0 1 1.4-.8 1 1 0 0 1 .7 1 1 1 0 0 1-1.1 1v.1Z"/></svg>